<svg width="54" height="825" viewBox="0 0 54 825" fill="none" xmlns="http://www.w3.org/2000/svg">
<path d="M23.5838 0.126149C28.3385 -0.324115 33.1271 0.435376 37.5085 2.33385C44.1098 5.29377 49.228 10.8002 51.7047 17.5987C54.3704 24.8645 53.9536 32.9043 50.5463 39.8536C46.635 47.6462 42.9301 51.3583 35.0299 53.9983L34.9814 775.02C37.6132 776.033 37.7848 776.886 40.184 778.457C45.7723 782.155 49.6109 787.971 50.8274 794.562C52.1215 801.532 50.5318 808.73 46.4314 814.507C42.1518 820.459 36.6555 823.183 29.6326 824.336C18.3202 824.734 8.88309 820.163 4.33101 809.311C1.6808 802.947 1.69873 795.789 4.38044 789.435C7.71647 781.544 12.9747 778.137 20.4479 775.166C27.9212 772.195 18.3997 54.0507 18.3997 54.0507C18.3997 54.0507 14.9469 52.0063 12.7964 50.6492C6.61868 46.8222 2.24156 40.6688 0.65328 33.5775C-0.944697 26.3209 0.416281 18.7265 4.4357 12.4767C9.16614 5.2259 15.417 1.91654 23.5838 0.126149Z" fill="#FFFF00"/>
</svg>
