<svg width="860" height="477" viewBox="0 0 860 477" fill="none" xmlns="http://www.w3.org/2000/svg">
<path d="M281.08 0.47876C283.022 0.622708 284.919 0.788476 286.716 1.60176C290.068 3.11831 292.914 6.59247 294.116 10.0279C296.382 16.5065 295.034 58.7945 294.996 68.7507L294.94 135.142L294.926 361.688C294.883 394.587 294.962 427.541 294.928 460.44C294.925 463.649 294.689 466.688 293.137 469.567C290.633 474.215 287.817 475.436 283.258 477.002C276.17 477.118 269.739 472.79 268.265 465.384C267.494 461.512 267.932 455.414 267.938 451.275L267.948 426.31L267.95 330.688L267.939 121.769L267.928 54.3291C267.915 41.6117 267.846 28.8362 267.982 16.1202C268.02 12.6131 268.933 9.11616 271.002 6.23718C273.681 2.50954 276.618 1.24309 281.08 0.47876Z" fill="#FEFEFE"/>
<path d="M576.651 0.000628303C582.719 -0.0546247 587.818 3.53828 589.926 9.22062C590.517 10.8559 590.876 12.5673 590.992 14.3034C591.525 22.3912 591.099 34.9787 591.079 43.51L591.036 97.3802V303.653L591.007 407.756C591.002 425.355 591.191 442.954 590.987 460.542C590.886 469.465 587.435 474.142 579.152 476.944C562.493 476.837 564.025 460.736 564.243 449.065C564.354 442.886 564.243 436.527 564.243 430.333V347.826L564.258 125.154C564.262 88.816 564.243 52.4251 564.248 16.086C564.248 11.7317 564.476 10.015 566.807 6.19187C569.177 2.31495 572.429 0.993244 576.651 0.000628303Z" fill="#FEFEFE"/>
<path d="M619.167 54.1943C630.561 53.6093 636.319 59.8005 636.503 71.1371C636.649 80.5417 636.547 89.9774 636.537 99.384L636.513 160.995L636.528 320.955C636.532 347.966 636.586 374.982 636.513 401.993C636.498 407.47 635.723 411.144 632.233 415.535C629.97 418.38 628.564 419.054 625.162 420.018C617.233 420.745 612.711 418.928 609.478 411.599C607.806 407.804 607.791 405.866 607.781 401.77C607.738 380.73 607.825 359.686 607.82 338.646L607.811 205.83L607.801 117.142C607.791 101.399 607.66 85.6342 607.888 69.8958C608.004 61.5322 611.901 57.2404 619.167 54.1943Z" fill="#FEFEFE"/>
<path d="M232.898 65.8722C235.937 65.6435 238.801 65.7181 241.637 66.9719C245.508 68.6838 247.914 72.301 249.248 76.1968C251.374 82.4031 250.156 111.2 250.153 119.872L250.135 189.706L250.16 323.961C250.188 348.417 250.244 372.874 250.143 397.326C250.104 406.738 248.101 413.509 238.366 416.664C231.59 417.227 227.211 415.433 223.479 409.389C222.204 407.325 221.173 404.402 221.136 401.959C220.918 387.395 221.022 372.811 221.032 358.242L221.046 274.965L221.031 150.14C221.026 128.527 221.009 106.913 221.062 85.3009C221.087 75.6389 222.753 69.2931 232.898 65.8722Z" fill="#FEFEFE"/>
<path d="M319.15 65.3882C322.259 65.0775 325.344 65.1066 328.189 66.5601C331.189 68.0927 333.536 71.087 334.575 74.2597C336.519 80.2023 335.456 115.187 335.457 124.332L335.452 240.175L335.446 343.213C335.454 361.485 335.59 379.772 335.379 398.044C335.294 405.421 331.953 409.642 325.045 411.823C322.686 412.037 319.762 412.032 317.557 411.184C311.444 408.828 308.822 403.041 308.784 396.886C308.675 378.754 308.755 360.642 308.755 342.52L308.73 236.482L308.744 133.889C308.742 115.754 308.668 97.4931 308.851 79.357C308.869 77.5661 309.409 74.8544 310.203 73.2622C312.542 68.574 314.494 67.0652 319.15 65.3882Z" fill="#FEFEFE"/>
<path d="M534.77 65.8321C542.19 65.409 549.005 69.5845 549.93 76.6539C551.288 86.9935 550.638 101.295 550.633 111.814L550.619 178.206L550.633 321.995C550.638 346.708 550.716 371.572 550.536 396.296C550.512 399.538 549.485 402.911 547.875 405.723C546.087 408.849 543.237 410.332 539.903 411.311C530.708 411.893 524.233 407.07 524.068 397.469C523.802 382.003 523.942 366.488 523.942 351.022L523.947 261.633L523.937 143.439C523.932 123.381 523.86 103.321 523.952 83.2649C523.995 74.3309 525.866 69.1739 534.77 65.8321Z" fill="#FEFEFE"/>
<path d="M667.779 105.095C675.234 104.495 683.633 109.734 684.166 117.466C685 129.607 684.564 142.323 684.554 154.555L684.535 223.059V312.374C684.544 327.777 684.641 343.364 684.457 358.767C684.428 361.03 683.439 364.35 682.29 366.318C679.46 371.165 676.935 372.391 672.049 373.932C669.49 374.107 667.266 373.937 664.857 372.977C660.94 371.417 658.221 368.116 656.695 364.253C654.068 357.608 655.381 309.785 655.381 299.85L655.396 223.296L655.381 157.087C655.381 145.527 655.294 133.965 655.473 122.406C655.619 113.342 659.128 107.99 667.779 105.095Z" fill="#FEFEFE"/>
<path d="M186.024 105.132C204.447 103.637 202.899 122.874 202.684 135.048C202.546 142.916 202.688 150.939 202.686 158.815L202.665 245.125L202.666 318.995C202.665 331.873 202.763 344.906 202.523 357.779C202.463 360.943 201.902 364.021 200.343 366.808C197.831 371.296 194.756 372.561 190.236 373.967C187.607 374.161 185.238 373.938 182.782 372.905C178.733 371.204 176.1 367.826 174.543 363.813C172.37 358.205 173.548 309.844 173.55 299.763L173.552 208.106L173.52 150.797C173.517 140.835 173.4 130.828 173.601 120.874C173.764 112.738 178.677 107.592 186.024 105.132Z" fill="#FEFEFE"/>
<path d="M714.793 135.688C727.375 134.588 731.408 145.049 731.35 155.658C731.282 168.489 731.34 181.356 731.321 194.191L731.35 256.165L731.345 300.929C731.345 309.489 731.456 318.164 731.166 326.714C731.069 329.636 730.376 332.724 728.917 335.283C726.295 339.892 723.561 341.254 718.884 342.655C715.952 342.888 713.223 342.742 710.577 341.298C700.951 336.039 702.153 324.916 702.08 315.625C702.041 310.569 702.07 305.694 702.07 300.73L702.075 246.505V185.199C702.08 174.462 701.92 163.699 702.259 152.971C702.555 143.529 705.822 138.484 714.793 135.688Z" fill="#FEFEFE"/>
<path d="M139.973 135.653C153.094 134.153 157.163 146.112 156.283 156.666C155.935 160.854 156.302 166.775 156.301 171.107L156.338 211.176L156.341 288.075C156.332 298.394 156.28 308.766 156.297 319.08C156.314 330.189 156.62 340.285 143.171 342.873C136.734 343.12 129.171 338.312 128.25 332.554C126.349 320.655 127.175 303.197 127.187 291.221L127.177 231.78L127.182 179.662C127.185 170.481 127.065 161.279 127.314 152.104C127.552 143.354 131.956 138.325 139.973 135.653Z" fill="#FEFEFE"/>
<path d="M360.365 128.89C366.385 128.522 374.309 131.558 375.355 138.228C376.778 147.292 376.189 157.991 376.189 167.29L376.182 214.323L376.198 292.269C376.203 306.049 376.29 319.843 376.085 333.622C375.967 341.575 373.014 346.374 365.278 348.753C347.711 350.159 349.681 332.837 349.729 321.02C349.76 313.522 349.725 305.966 349.73 298.468L349.75 237.113L349.707 176.733C349.704 165.428 349.585 154.101 349.865 142.801C350.046 135.475 353.707 131.275 360.365 128.89Z" fill="#FEFEFE"/>
<path d="M495.278 131.376C500.561 131.528 507.158 134.966 507.783 139.788C509.499 153.056 508.806 173.367 508.796 186.354L508.757 256.627V307.189C508.748 315.515 509.034 326.479 508.544 334.539C508.399 336.899 507.768 339.201 506.692 341.31C504.705 345.182 501.957 346.535 498.08 347.833C491.338 348.396 483.918 344.504 483.176 337.234C482.308 328.771 482.725 319.218 482.735 310.635L482.774 258.968L482.754 182.009C482.754 171.49 482.197 153.396 482.895 143.717C483.089 141.135 484.005 138.66 485.536 136.573C488.154 133.024 491.168 132.015 495.278 131.376Z" fill="#FEFEFE"/>
<path d="M94.4442 168.115C96.5933 167.992 98.7452 168.306 100.769 169.04C108.127 171.751 110.486 178.949 110.523 186.139C110.705 218.721 110.539 251.322 110.588 283.907C110.605 295.646 111.342 304.694 98.2043 309.299C77.4529 310.074 81.5387 284.925 81.5489 271.019V234.106L81.5581 202.518C81.5644 188.835 78.3418 173.024 94.4442 168.115Z" fill="#FEFEFE"/>
<path d="M761.317 168.126C771.703 167.348 777.36 175.462 777.398 185.101C777.539 220.701 777.544 256.335 777.374 291.934C777.331 301.463 774.117 306.188 765.301 309.319C754.842 310.342 748.822 302.209 748.798 292.438C748.715 256.383 748.623 220.308 748.899 184.257C748.967 175.556 753.339 170.712 761.317 168.126Z" fill="#FEFEFE"/>
<path d="M455.074 181.165C465.16 180.619 469.649 188.7 469.673 197.731C469.746 225.81 469.973 253.936 469.552 282.008C469.435 290.029 465.965 294.871 458.075 296.776C447.518 296.999 443.311 288.614 443.287 279.231C443.229 251.764 442.928 224.165 443.379 196.702C443.51 188.838 447.513 183.45 455.074 181.165Z" fill="#FEFEFE"/>
<path d="M401.379 181.161C411.908 180.908 415.721 189.141 415.757 198.38C415.862 226.086 416.036 253.829 415.691 281.528C415.597 289.026 412.171 293.984 405.172 296.606C399.638 296.965 393.178 294.987 391.238 289.118C389.693 284.446 389.619 278.901 389.61 274.011C389.583 258.36 389.591 242.681 389.597 227.031C389.633 216.721 389.459 206.366 389.82 196.07C390.134 187.604 393.189 183.476 401.379 181.161Z" fill="#FEFEFE"/>
<path d="M805.466 200.097C808.112 199.936 810.201 200.312 812.537 201.602C815.77 203.387 818.126 206.426 819.042 210.002C822.284 222.908 818.833 250.321 819.706 264.435C820.191 272.257 815.106 277.245 807.691 278.999C805.573 278.931 803.416 278.65 801.438 277.855C798.385 276.624 795.7 273.983 794.57 270.871C792.2 264.347 792.38 222.452 793.247 214.04C793.47 211.865 793.829 209.843 794.871 207.896C797.236 203.486 800.842 201.479 805.466 200.097Z" fill="#FEFEFE"/>
<path d="M50.6808 200.098C52.9631 199.917 55.1563 200.034 57.2831 200.946C60.9816 202.531 63.5582 205.447 65.0345 209.16C67.2053 214.619 66.7115 255.254 66.1715 262.665C65.9888 265.175 65.7058 267.924 64.6511 270.226C62.7071 274.467 60.2008 276.546 55.8683 278.121C53 278.533 50.2989 278.344 47.5852 277.254C44.8152 276.144 42.2882 274.064 41.1521 271.244C40.1512 268.762 39.7063 265.849 39.5008 263.183C38.8818 255.152 38.4452 213.446 40.901 208.064C42.8315 203.833 46.5359 201.691 50.6808 200.098Z" fill="#FEFEFE"/>
<path d="M845.704 218.583C858 218.992 859.997 229.254 859.648 239.481C859.314 249.175 859.042 256.227 848.224 259.261C841.337 259.319 835.371 255.243 834.416 248.036C832.991 237.29 831.852 221.168 845.704 218.583Z" fill="#FEFEFE"/>
<path d="M12.5455 218.586C23.9911 219.507 25.5862 229.899 25.3763 239.278C25.1519 249.325 24.6139 256.644 13.4955 259.45C0.813451 257.831 0.0699538 250.256 0.00646124 239.423C-0.0555773 228.794 0.0772245 220.838 12.5455 218.586Z" fill="#FEFEFE"/>
</svg>
