<svg preserveAspectRatio="none" width="100%" height="100%" overflow="visible" style="display: block;" viewBox="0 0 87.2289 30.3777" fill="none" xmlns="http://www.w3.org/2000/svg">
<g id="Playhead Logo">
<path id="Vector" d="M78.5174 24.0771C77.5744 24.0771 76.7279 23.7557 75.9779 23.1128C75.2492 22.4484 74.6813 21.5376 74.2741 20.3804C73.867 19.2017 73.6634 17.8409 73.6634 16.2979C73.6634 14.4977 73.942 12.9226 74.4992 11.5725C75.0564 10.2009 75.8278 9.12938 76.8137 8.35788C77.7995 7.58639 78.9138 7.20064 80.1568 7.20064C80.4568 7.20064 80.7569 7.23278 81.0569 7.29708C81.3569 7.33994 81.6462 7.42566 81.9248 7.55424C82.2677 7.72568 82.4391 7.65068 82.4391 7.32922V3.21457C82.4391 2.82882 82.3749 2.56094 82.2463 2.41093C82.1391 2.26091 81.9355 2.17519 81.6355 2.15376L80.7997 2.05732C80.564 2.01446 80.4461 1.88588 80.4461 1.67158C80.4461 1.45727 80.564 1.32869 80.7997 1.28583C81.4855 1.15724 82.032 1.00723 82.4391 0.835787C82.8678 0.664343 83.2214 0.4929 83.5 0.321457C83.8428 0.107152 84.1 0 84.2715 0C84.5072 0 84.6251 0.171443 84.6251 0.51433V20.734C84.6251 21.6341 84.8501 22.0841 85.3001 22.0841C85.5787 22.0841 85.8359 21.9019 86.0716 21.5376C86.3074 21.1519 86.4252 20.509 86.4252 19.6089C86.4252 19.266 86.5645 19.0945 86.8431 19.0945C87.1003 19.0945 87.2289 19.2767 87.2289 19.641C87.2289 21.2055 86.961 22.3413 86.4252 23.0485C85.8895 23.7342 85.2787 24.0771 84.5929 24.0771C83.9714 24.0771 83.5 23.8735 83.1785 23.4664C82.857 23.0378 82.6427 22.5341 82.5356 21.9555C82.5142 21.7841 82.4392 21.6984 82.3106 21.6984C82.182 21.6769 82.0641 21.7519 81.957 21.9234C81.3569 22.7592 80.8104 23.3271 80.3175 23.6271C79.8246 23.9271 79.2246 24.0771 78.5174 24.0771ZM79.2246 22.5984C79.7818 22.5984 80.2961 22.4163 80.7676 22.052C81.2605 21.6662 81.6569 21.1519 81.957 20.509C82.2784 19.866 82.4391 19.1481 82.4391 18.3552V11.1224C82.4391 10.158 82.2141 9.39726 81.7641 8.84007C81.3355 8.28288 80.7676 8.00428 80.0604 8.00428C78.8603 8.00428 77.8852 8.71149 77.1351 10.1259C76.4065 11.5189 76.0422 13.4262 76.0422 15.8478C76.0422 18.0552 76.3208 19.7375 76.8779 20.8947C77.4566 22.0305 78.2388 22.5984 79.2246 22.5984Z" fill="var(--fill-0, white)"/>
<path id="Vector_2" d="M66.0075 24.0771C65.1074 24.0771 64.3681 23.7985 63.7894 23.2414C63.2108 22.6627 62.9215 21.902 62.9215 20.959C62.9215 20.0375 63.2108 19.1696 63.7894 18.3552C64.3681 17.5194 65.161 16.7694 66.1682 16.105C67.1754 15.4407 68.322 14.9049 69.6078 14.4977C69.8864 14.412 70.0257 14.2298 70.0257 13.9512V11.026C70.0257 9.99732 69.865 9.26869 69.5435 8.84008C69.2221 8.39004 68.7827 8.16502 68.2255 8.16502C67.6898 8.16502 67.1969 8.41147 66.7468 8.90437C66.3182 9.37584 66.0075 10.1795 65.8146 11.3153C65.7075 12.0011 65.4717 12.5047 65.1074 12.8261C64.7645 13.1262 64.4109 13.2762 64.0466 13.2762C63.4465 13.2762 63.1465 12.9762 63.1465 12.3761C63.1465 11.7546 63.318 11.1439 63.6608 10.5438C64.0252 9.92232 64.4966 9.36513 65.0753 8.87222C65.6539 8.35789 66.2861 7.95071 66.9719 7.65069C67.6576 7.35066 68.3434 7.20065 69.0292 7.20065C71.1508 7.20065 72.2116 8.4329 72.2116 10.8974V20.734C72.2116 21.6341 72.4366 22.0841 72.8867 22.0841C73.1653 22.0841 73.4224 21.902 73.6582 21.5376C73.8939 21.1519 74.0118 20.509 74.0118 19.6089C74.0118 19.266 74.1511 19.0946 74.4297 19.0946C74.6868 19.0946 74.8154 19.2767 74.8154 19.641C74.8154 21.2055 74.5368 22.3413 73.9796 23.0485C73.4439 23.7343 72.8331 24.0771 72.1473 24.0771C71.633 24.0771 71.2258 23.8736 70.9258 23.4664C70.6258 23.0378 70.4222 22.5342 70.315 21.9555C70.2936 21.7412 70.1971 21.6341 70.0257 21.6341C69.8757 21.6126 69.7257 21.7091 69.5757 21.9234C69.0613 22.6306 68.5363 23.1664 68.0005 23.5307C67.4648 23.895 66.8004 24.0771 66.0075 24.0771ZM66.8754 22.5984C67.4326 22.5984 67.9469 22.4056 68.4184 22.0198C68.8899 21.6126 69.2756 21.0769 69.5757 20.4125C69.8757 19.7482 70.0257 18.9981 70.0257 18.1623V15.8157C70.0257 15.4085 69.8007 15.2907 69.3506 15.4621C68.0434 15.9336 67.0254 16.5872 66.2968 17.423C65.5896 18.2373 65.236 19.2231 65.236 20.3804C65.236 21.8591 65.7825 22.5984 66.8754 22.5984Z" fill="var(--fill-0, white)"/>
<path id="Vector_3" d="M58.1809 24.0771C57.1522 24.0771 56.2307 23.7343 55.4163 23.0485C54.602 22.3627 53.9483 21.3983 53.4554 20.1554C52.984 18.891 52.7482 17.4337 52.7482 15.7836C52.7482 14.0905 52.9947 12.6011 53.4876 11.3153C53.9805 10.0295 54.6555 9.02224 55.5128 8.2936C56.37 7.56497 57.3236 7.20065 58.3737 7.20065C59.6381 7.20065 60.6561 7.72569 61.4276 8.77579C62.2205 9.80445 62.617 11.4867 62.617 13.8227C62.617 14.5299 62.3491 14.8835 61.8133 14.8835H55.7056C55.277 14.8835 55.0627 15.1299 55.0627 15.6228C55.0627 17.8945 55.3949 19.5982 56.0592 20.734C56.7236 21.8698 57.5701 22.4377 58.5988 22.4377C59.4131 22.4377 60.0775 22.1484 60.5918 21.5698C61.1061 20.9912 61.524 20.0161 61.8455 18.6445C61.9098 18.4088 62.0491 18.2909 62.2634 18.2909C62.5205 18.2909 62.617 18.5052 62.5527 18.9338C62.2098 20.8411 61.6633 22.1805 60.9132 22.952C60.1632 23.7021 59.2524 24.0771 58.1809 24.0771ZM55.6092 14.0798H58.8559C59.8846 14.0798 60.3989 13.5441 60.3989 12.4725C60.3989 11.0796 60.2275 9.98661 59.8846 9.19368C59.5417 8.40075 59.0274 8.00429 58.3416 8.00429C57.5058 8.00429 56.7986 8.48648 56.22 9.45085C55.6628 10.4152 55.2985 11.7868 55.127 13.5655C55.0842 13.9084 55.2449 14.0798 55.6092 14.0798Z" fill="var(--fill-0, white)"/>
<path id="Vector_4" d="M40.0676 23.7878C39.8105 23.7878 39.6819 23.67 39.6819 23.4342C39.6819 23.2199 39.7997 23.0913 40.0355 23.0485L40.4855 22.9842C40.9356 22.9199 41.2249 22.7913 41.3535 22.5984C41.5035 22.4056 41.5785 22.0841 41.5785 21.6341V3.21457C41.5785 2.82882 41.5142 2.57166 41.3856 2.44307C41.2784 2.29306 41.0749 2.19662 40.7748 2.15376L40.0998 2.05732C39.864 2.01446 39.7462 1.88588 39.7462 1.67158C39.7462 1.45727 39.864 1.32869 40.0998 1.28583C40.6998 1.15724 41.2034 1.00723 41.6106 0.835787C42.0178 0.664343 42.3607 0.4929 42.6393 0.321457C42.9822 0.107152 43.2393 0 43.4108 0C43.6465 0 43.7644 0.171443 43.7644 0.51433V9.03295C43.7644 9.22582 43.8287 9.34369 43.9573 9.38655C44.0858 9.40798 44.2466 9.33297 44.4394 9.16153C45.2538 8.41146 45.9717 7.89713 46.5932 7.61853C47.2147 7.33994 47.8683 7.20064 48.5541 7.20064C49.5613 7.20064 50.3543 7.54353 50.9329 8.2293C51.5115 8.89365 51.8008 9.87945 51.8008 11.1867V21.6341C51.8008 22.0841 51.8651 22.4056 51.9937 22.5984C52.1437 22.7699 52.4437 22.8877 52.8938 22.952L53.601 23.0485C53.8367 23.0913 53.9546 23.2199 53.9546 23.4342C53.9546 23.67 53.826 23.7878 53.5688 23.7878H48.1683C47.8683 23.7878 47.7183 23.67 47.7183 23.4342C47.7183 23.2199 47.8362 23.0913 48.0719 23.0485L48.522 22.9842C48.972 22.9199 49.2613 22.7913 49.3899 22.5984C49.5399 22.4056 49.6149 22.0841 49.6149 21.6341V11.5403C49.6149 10.4902 49.422 9.75086 49.0363 9.32225C48.6505 8.89364 48.1041 8.67934 47.3968 8.67934C46.7111 8.67934 46.0896 8.88293 45.5324 9.29011C44.9966 9.67586 44.568 10.2009 44.2466 10.8652C43.9251 11.5082 43.7644 12.2261 43.7644 13.019V21.6341C43.7644 22.0841 43.8287 22.4056 43.9573 22.5984C44.1073 22.7913 44.4073 22.9092 44.8573 22.952L45.7253 23.0485C45.961 23.0913 46.0789 23.2199 46.0789 23.4342C46.0789 23.67 45.9503 23.7878 45.6931 23.7878H40.0676Z" fill="var(--fill-0, white)"/>
<path id="Vector_5" d="M30.5026 30.3777C29.9239 30.3777 29.4632 30.1741 29.1203 29.767C28.7774 29.3812 28.606 28.9312 28.606 28.4168C28.606 28.0097 28.7238 27.6668 28.9596 27.3882C29.1953 27.1096 29.5168 26.9703 29.9239 26.9703C30.2668 26.9703 30.5133 27.0453 30.6633 27.1953C30.8133 27.3453 30.9205 27.5168 30.9847 27.7096C31.049 27.9025 31.1133 28.074 31.1776 28.224C31.2419 28.374 31.3705 28.449 31.5634 28.449C31.7991 28.449 32.0134 28.2775 32.2063 27.9347C32.3992 27.6132 32.667 26.9167 33.0099 25.8452C33.2242 25.2023 33.3528 24.6451 33.3957 24.1736C33.46 23.7021 33.4493 23.1985 33.3635 22.6628C33.2992 22.127 33.1385 21.4734 32.8813 20.7019L29.3775 9.54731C29.2274 9.03298 29.0774 8.70081 28.9274 8.55079C28.7988 8.40078 28.5845 8.29363 28.2845 8.22933L27.8023 8.1329C27.5237 8.06861 27.3844 7.92931 27.3844 7.715C27.3844 7.5007 27.5344 7.39355 27.8345 7.39355H33.1385C33.4385 7.39355 33.5885 7.5007 33.5885 7.715C33.5885 7.95074 33.4492 8.09004 33.1707 8.1329L32.6563 8.19719C32.142 8.26148 31.8098 8.39006 31.6598 8.58294C31.5312 8.75438 31.5419 9.07584 31.692 9.54731L34.5208 18.966C34.5851 19.1803 34.6815 19.2875 34.8101 19.2875C34.9601 19.2875 35.0673 19.1803 35.1315 18.966L37.8639 10.1259C38.0354 9.54731 38.0782 9.1187 37.9925 8.8401C37.9282 8.54008 37.6282 8.3472 37.0924 8.26148L36.4174 8.1329C36.1388 8.06861 35.9995 7.92931 35.9995 7.715C35.9995 7.5007 36.1495 7.39355 36.4495 7.39355H40.532C40.832 7.39355 40.9821 7.51141 40.9821 7.74715C40.9821 7.96145 40.8535 8.11147 40.5963 8.19719L40.307 8.29363C39.9855 8.40078 39.7177 8.59365 39.5034 8.87225C39.2891 9.15085 39.064 9.63303 38.8283 10.3188L34.0386 25.2666C33.5671 26.7667 33.1385 27.8811 32.7528 28.6097C32.3884 29.3384 32.0348 29.8098 31.692 30.0241C31.3491 30.2599 30.9526 30.3777 30.5026 30.3777Z" fill="var(--fill-0, white)"/>
<path id="Vector_6" d="M21.7079 24.0771C20.8078 24.0771 20.0685 23.7985 19.4898 23.2414C18.9112 22.6627 18.6219 21.902 18.6219 20.959C18.6219 20.0375 18.9112 19.1696 19.4898 18.3552C20.0685 17.5194 20.8614 16.7694 21.8686 16.105C22.8759 15.4407 24.0224 14.9049 25.3082 14.4977C25.5868 14.412 25.7261 14.2298 25.7261 13.9512V11.026C25.7261 9.99732 25.5654 9.26869 25.2439 8.84008C24.9225 8.39004 24.4831 8.16502 23.926 8.16502C23.3902 8.16502 22.8973 8.41147 22.4473 8.90437C22.0186 9.37584 21.7079 10.1795 21.515 11.3153C21.4079 12.0011 21.1721 12.5047 20.8078 12.8261C20.4649 13.1262 20.1113 13.2762 19.747 13.2762C19.147 13.2762 18.8469 12.9762 18.8469 12.3761C18.8469 11.7546 19.0184 11.1439 19.3613 10.5438C19.7256 9.92232 20.1971 9.36513 20.7757 8.87222C21.3543 8.35789 21.9865 7.95071 22.6723 7.65069C23.358 7.35066 24.0438 7.20065 24.7296 7.20065C26.8512 7.20065 27.912 8.4329 27.912 10.8974V20.734C27.912 21.6341 28.137 22.0841 28.5871 22.0841C28.8657 22.0841 29.1228 21.902 29.3586 21.5376C29.5943 21.1519 29.7122 20.509 29.7122 19.6089C29.7122 19.266 29.8515 19.0946 30.1301 19.0946C30.3872 19.0946 30.5158 19.2767 30.5158 19.641C30.5158 21.2055 30.2372 22.3413 29.68 23.0485C29.1443 23.7343 28.5335 24.0771 27.8477 24.0771C27.3334 24.0771 26.9262 23.8736 26.6262 23.4664C26.3262 23.0378 26.1226 22.5342 26.0154 21.9555C25.994 21.7412 25.8976 21.6341 25.7261 21.6341C25.5761 21.6126 25.4261 21.7091 25.2761 21.9234C24.7617 22.6306 24.2367 23.1664 23.7009 23.5307C23.1652 23.895 22.5008 24.0771 21.7079 24.0771ZM22.5758 22.5984C23.133 22.5984 23.6474 22.4056 24.1188 22.0198C24.5903 21.6126 24.976 21.0769 25.2761 20.4125C25.5761 19.7482 25.7261 18.9981 25.7261 18.1623V15.8157C25.7261 15.4085 25.5011 15.2907 25.0511 15.4621C23.7438 15.9336 22.7258 16.5872 21.9972 17.423C21.29 18.2373 20.9364 19.2231 20.9364 20.3804C20.9364 21.8591 21.4829 22.5984 22.5758 22.5984Z" fill="var(--fill-0, white)"/>
<path id="Vector_7" d="M12.7158 23.7878C12.4587 23.7878 12.3301 23.67 12.3301 23.4342C12.3301 23.2199 12.448 23.0913 12.6837 23.0485L13.1337 22.9842C13.5838 22.9199 13.916 22.7913 14.1303 22.5984C14.3446 22.4056 14.4517 22.0841 14.4517 21.6341V3.21457C14.4517 2.82882 14.3874 2.56094 14.2588 2.41093C14.1517 2.26091 13.9481 2.17519 13.6481 2.15376L12.9087 2.05732C12.673 2.01446 12.5551 1.88588 12.5551 1.67158C12.5551 1.45727 12.673 1.32869 12.9087 1.28583C13.5088 1.15724 14.0231 1.00723 14.4517 0.835787C14.8803 0.664343 15.2339 0.4929 15.5125 0.321457C15.8554 0.107152 16.1126 0 16.284 0C16.5198 0 16.6376 0.171443 16.6376 0.51433V21.6341C16.6376 22.0841 16.7019 22.4056 16.8305 22.5984C16.9805 22.7699 17.2805 22.8877 17.7306 22.952L18.4699 23.0485C18.7057 23.0913 18.8235 23.2199 18.8235 23.4342C18.8235 23.67 18.695 23.7878 18.4378 23.7878H12.7158Z" fill="var(--fill-0, white)"/>
<path id="Vector_8" d="M0.482186 23.7878C0.160729 23.7878 0 23.6699 0 23.4342C0 23.2413 0.139298 23.1128 0.417894 23.0485L1.15725 22.9199C1.60729 22.8342 1.8966 22.7163 2.02518 22.5663C2.17519 22.4163 2.2502 22.1162 2.2502 21.6662V2.76452C2.2502 2.31448 2.17519 2.01445 2.02518 1.86444C1.8966 1.71442 1.60729 1.59656 1.15725 1.51083L0.417894 1.38225C0.139298 1.31796 0 1.18938 0 0.996501C0 0.760766 0.160729 0.642899 0.482186 0.642899H7.20064C8.46504 0.642899 9.57942 0.921495 10.5438 1.47869C11.5082 2.01445 12.2582 2.76452 12.794 3.72889C13.3298 4.69326 13.5976 5.80764 13.5976 7.07204C13.5976 8.29358 13.3298 9.37582 12.794 10.3188C12.2582 11.2617 11.5189 12.001 10.5759 12.5368C9.633 13.0511 8.54005 13.3083 7.29708 13.3083H4.98259C4.68256 13.3083 4.53255 13.4583 4.53255 13.7583V21.5376C4.53255 21.9877 4.61827 22.2984 4.78971 22.4698C4.96116 22.6198 5.3469 22.7484 5.94696 22.8556L7.13635 23.0485C7.37208 23.0913 7.48995 23.2092 7.48995 23.4021C7.48995 23.6592 7.32922 23.7878 7.00777 23.7878H0.482186ZM4.53255 10.7367C4.53255 11.9153 5.25047 12.5047 6.68631 12.5047C8.07929 12.5047 9.17225 12.0118 9.96517 11.026C10.7795 10.0402 11.1867 8.69004 11.1867 6.9756C11.1867 5.21831 10.7795 3.85747 9.96517 2.8931C9.15081 1.92873 7.99357 1.44654 6.49344 1.44654C5.18618 1.44654 4.53255 1.87515 4.53255 2.73237V10.7367Z" fill="var(--fill-0, white)"/>
</g>
</svg>
