<svg width="188" height="55" viewBox="0 0 188 55" fill="none" xmlns="http://www.w3.org/2000/svg">
<path d="M172.824 46.1719C170.556 46.1719 168.584 45.6133 166.908 44.4961C165.249 43.362 163.963 41.7454 163.049 39.6465C162.152 37.5475 161.703 35.0592 161.703 32.1816V32.1562C161.703 29.2617 162.16 26.7734 163.074 24.6914C163.988 22.5924 165.275 20.9844 166.934 19.8672C168.592 18.7331 170.548 18.166 172.799 18.166C174.085 18.166 175.262 18.3776 176.328 18.8008C177.411 19.207 178.368 19.7995 179.197 20.5781C180.027 21.3398 180.695 22.2624 181.203 23.3457H181.355V9H187.652V45.6387H181.355V41.0684H181.203C180.712 42.1348 180.052 43.0488 179.223 43.8105C178.41 44.5553 177.462 45.1393 176.379 45.5625C175.312 45.9688 174.128 46.1719 172.824 46.1719ZM174.729 40.8652C176.032 40.8652 177.183 40.5098 178.182 39.7988C179.18 39.0879 179.959 38.0807 180.518 36.7773C181.076 35.474 181.355 33.9421 181.355 32.1816V32.1562C181.355 30.3958 181.068 28.8724 180.492 27.5859C179.934 26.2826 179.155 25.2754 178.156 24.5645C177.174 23.8535 176.032 23.498 174.729 23.498C173.374 23.498 172.198 23.8535 171.199 24.5645C170.217 25.2585 169.456 26.2487 168.914 27.5352C168.389 28.8216 168.127 30.362 168.127 32.1562V32.1816C168.127 33.959 168.389 35.4993 168.914 36.8027C169.456 38.1061 170.217 39.1133 171.199 39.8242C172.198 40.5182 173.374 40.8652 174.729 40.8652Z" fill="white"/>
<path d="M146.223 46.0957C144.445 46.0957 142.871 45.7572 141.5 45.0801C140.146 44.3861 139.088 43.4297 138.326 42.2109C137.581 40.9753 137.209 39.5618 137.209 37.9707V37.9199C137.209 36.3118 137.607 34.9408 138.402 33.8066C139.215 32.6556 140.383 31.75 141.906 31.0898C143.43 30.4128 145.275 30.0065 147.441 29.8711L157.725 29.2363V33.4258L148.33 34.0098C146.773 34.1113 145.579 34.4837 144.75 35.127C143.921 35.7702 143.506 36.625 143.506 37.6914V37.7168C143.506 38.8171 143.921 39.6888 144.75 40.332C145.596 40.9583 146.714 41.2715 148.102 41.2715C149.32 41.2715 150.404 41.026 151.352 40.5352C152.316 40.0443 153.078 39.3757 153.637 38.5293C154.195 37.6829 154.475 36.7266 154.475 35.6602V27.5859C154.475 26.2318 154.043 25.1654 153.18 24.3867C152.333 23.5911 151.106 23.1934 149.498 23.1934C148.008 23.1934 146.815 23.515 145.918 24.1582C145.021 24.7845 144.462 25.597 144.242 26.5957L144.191 26.8242H138.352L138.377 26.5195C138.512 24.9284 139.046 23.5065 139.977 22.2539C140.908 20.9844 142.194 19.9857 143.836 19.2578C145.495 18.5299 147.458 18.166 149.727 18.166C151.978 18.166 153.924 18.5384 155.566 19.2832C157.225 20.028 158.503 21.069 159.4 22.4062C160.314 23.7435 160.771 25.3177 160.771 27.1289V45.6387H154.475V41.5H154.322C153.814 42.431 153.154 43.2435 152.342 43.9375C151.529 44.6315 150.598 45.1647 149.549 45.5371C148.516 45.9095 147.408 46.0957 146.223 46.0957Z" fill="white"/>
<path d="M124.156 46.1719C121.465 46.1719 119.146 45.6048 117.199 44.4707C115.27 43.3366 113.788 41.7285 112.756 39.6465C111.723 37.5645 111.207 35.1016 111.207 32.2578V32.2324C111.207 29.4056 111.723 26.9427 112.756 24.8438C113.805 22.7279 115.27 21.0859 117.148 19.918C119.044 18.75 121.279 18.166 123.852 18.166C126.408 18.166 128.617 18.7331 130.479 19.8672C132.357 20.9844 133.796 22.5586 134.795 24.5898C135.811 26.6211 136.318 28.9909 136.318 31.6992V33.7305H114.33V29.5156H133.297L130.25 33.4512V31.0137C130.25 29.2533 129.979 27.7891 129.438 26.6211C128.896 25.4531 128.151 24.5814 127.203 24.0059C126.255 23.4134 125.163 23.1172 123.928 23.1172C122.675 23.1172 121.558 23.4219 120.576 24.0312C119.611 24.6237 118.85 25.5124 118.291 26.6973C117.749 27.8822 117.479 29.321 117.479 31.0137V33.4512C117.479 35.0931 117.749 36.498 118.291 37.666C118.85 38.8171 119.637 39.7057 120.652 40.332C121.668 40.9414 122.878 41.2461 124.283 41.2461C125.333 41.2461 126.255 41.0853 127.051 40.7637C127.846 40.4251 128.498 39.9935 129.006 39.4688C129.531 38.944 129.895 38.377 130.098 37.7676L130.148 37.5898H136.039L135.988 37.8691C135.768 38.9017 135.362 39.9173 134.77 40.916C134.177 41.8978 133.382 42.7865 132.383 43.582C131.384 44.3776 130.199 45.0124 128.828 45.4863C127.457 45.9434 125.9 46.1719 124.156 46.1719Z" fill="white"/>
<path d="M86.0273 45.6387V9H92.3496V23.2441H92.4766C93.1875 21.6191 94.2454 20.3665 95.6504 19.4863C97.0723 18.6061 98.7819 18.166 100.779 18.166C102.726 18.166 104.41 18.6146 105.832 19.5117C107.254 20.3919 108.354 21.6361 109.133 23.2441C109.911 24.8353 110.301 26.7142 110.301 28.8809V45.6387H103.979V30.125C103.979 28.0599 103.479 26.4434 102.48 25.2754C101.482 24.0905 100.077 23.498 98.2656 23.498C97.0807 23.498 96.0397 23.7858 95.1426 24.3613C94.2624 24.9199 93.5768 25.6986 93.0859 26.6973C92.5951 27.679 92.3496 28.8216 92.3496 30.125V45.6387H86.0273Z" fill="white"/>
<path d="M64.5195 54.5762C63.9102 54.5762 63.3092 54.5423 62.7168 54.4746C62.1413 54.4238 61.6589 54.3646 61.2695 54.2969V49.498C61.5065 49.5319 61.8027 49.5742 62.1582 49.625C62.5137 49.6758 62.9199 49.7012 63.377 49.7012C64.5957 49.7012 65.5605 49.4896 66.2715 49.0664C66.9824 48.6602 67.541 47.89 67.9473 46.7559L68.3281 45.6641L58.6543 18.7246H65.5352L72.2383 41.5762L71.2734 40.2559H72.6191L71.6543 41.5762L78.3574 18.7246H85.0098L75.3105 46.5527C74.6335 48.5163 73.8125 50.082 72.8477 51.25C71.8828 52.4349 70.7148 53.2812 69.3438 53.7891C67.9896 54.3138 66.3815 54.5762 64.5195 54.5762Z" fill="white"/>
<path d="M44.418 46.0957C42.6406 46.0957 41.0664 45.7572 39.6953 45.0801C38.3411 44.3861 37.2832 43.4297 36.5215 42.2109C35.7767 40.9753 35.4043 39.5618 35.4043 37.9707V37.9199C35.4043 36.3118 35.8021 34.9408 36.5977 33.8066C37.4102 32.6556 38.5781 31.75 40.1016 31.0898C41.625 30.4128 43.4701 30.0065 45.6367 29.8711L55.9199 29.2363V33.4258L46.5254 34.0098C44.9681 34.1113 43.7747 34.4837 42.9453 35.127C42.1159 35.7702 41.7012 36.625 41.7012 37.6914V37.7168C41.7012 38.8171 42.1159 39.6888 42.9453 40.332C43.7917 40.9583 44.9089 41.2715 46.2969 41.2715C47.5156 41.2715 48.599 41.026 49.5469 40.5352C50.5117 40.0443 51.2734 39.3757 51.832 38.5293C52.3906 37.6829 52.6699 36.7266 52.6699 35.6602V27.5859C52.6699 26.2318 52.2383 25.1654 51.375 24.3867C50.5286 23.5911 49.3014 23.1934 47.6934 23.1934C46.2038 23.1934 45.0104 23.515 44.1133 24.1582C43.2161 24.7845 42.6576 25.597 42.4375 26.5957L42.3867 26.8242H36.5469L36.5723 26.5195C36.7077 24.9284 37.2409 23.5065 38.1719 22.2539C39.1029 20.9844 40.3893 19.9857 42.0312 19.2578C43.6901 18.5299 45.6536 18.166 47.9219 18.166C50.1732 18.166 52.1198 18.5384 53.7617 19.2832C55.4206 20.028 56.6986 21.069 57.5957 22.4062C58.5098 23.7435 58.9668 25.3177 58.9668 27.1289V45.6387H52.6699V41.5H52.5176C52.0098 42.431 51.3496 43.2435 50.5371 43.9375C49.7246 44.6315 48.7936 45.1647 47.7441 45.5371C46.7116 45.9095 45.6029 46.0957 44.418 46.0957Z" fill="white"/>
<path d="M27.8457 45.6387V9H34.168V45.6387H27.8457Z" fill="white"/>
<path d="M3.27539 33.5273V28.2461H12.4922C14.862 28.2461 16.6901 27.6452 17.9766 26.4434C19.2799 25.2246 19.9316 23.515 19.9316 21.3145V21.2637C19.9316 19.0462 19.2799 17.3366 17.9766 16.1348C16.6901 14.9329 14.862 14.332 12.4922 14.332H3.27539V9H14.1172C16.5885 9 18.7552 9.50781 20.6172 10.5234C22.4961 11.5391 23.9603 12.9694 25.0098 14.8145C26.0592 16.6426 26.584 18.7839 26.584 21.2383V21.2891C26.584 23.7266 26.0592 25.8678 25.0098 27.7129C23.9603 29.541 22.4961 30.9714 20.6172 32.0039C18.7552 33.0195 16.5885 33.5273 14.1172 33.5273H3.27539ZM0 45.6387V9H6.55078V45.6387H0Z" fill="white"/>
</svg>
